<mxfile host="app.diagrams.net" modified="2020-11-21T10:57:07.875Z" agent="5.0 (Macintosh; Intel Mac OS X 10_15_7) AppleWebKit/537.36 (KHTML, like Gecko) Chrome/86.0.4240.198 Safari/537.36" etag="B_KQYKcP2ULZBGNqhsZn" version="13.9.2" type="github">
  <diagram id="4_Fia8kbsiUVp8hON2T_" name="Page-1">
    <mxGraphModel dx="946" dy="591" grid="1" gridSize="10" guides="1" tooltips="1" connect="1" arrows="1" fold="1" page="1" pageScale="1" pageWidth="827" pageHeight="1169" math="0" shadow="0">
      <root>
        <mxCell id="0" />
        <mxCell id="1" parent="0" />
        <mxCell id="8pptQlGY_vhrEIVUXviV-2" value="D1" style="ellipse;whiteSpace=wrap;html=1;aspect=fixed;strokeColor=#000099;fillColor=#3399FF;fontColor=#FFFFFF;fontStyle=1" vertex="1" parent="1">
          <mxGeometry x="170" y="110" width="30" height="30" as="geometry" />
        </mxCell>
      </root>
    </mxGraphModel>
  </diagram>
</mxfile>
